<?xml version="1.0" encoding="UTF-8" standalone="no"?>
<!-- Created with Inkscape (http://www.inkscape.org/) -->

<svg
   xmlns:dc="http://purl.org/dc/elements/1.1/"
   xmlns:cc="http://creativecommons.org/ns#"
   xmlns:rdf="http://www.w3.org/1999/02/22-rdf-syntax-ns#"
   xmlns:svg="http://www.w3.org/2000/svg"
   xmlns="http://www.w3.org/2000/svg"
   xmlns:sodipodi="http://sodipodi.sourceforge.net/DTD/sodipodi-0.dtd"
   xmlns:inkscape="http://www.inkscape.org/namespaces/inkscape"
   id="svg4547"
   version="1.1"
   inkscape:version="0.91 r13725"
   width="1110"
   height="1400"
   viewBox="0 0 1110 1400"
   sodipodi:docname="body.svg">
  <metadata
     id="metadata4553">
    <rdf:RDF>
      <cc:Work
         rdf:about="">
        <dc:format>image/svg+xml</dc:format>
        <dc:type
           rdf:resource="http://purl.org/dc/dcmitype/StillImage" />
        <dc:title></dc:title>
      </cc:Work>
    </rdf:RDF>
  </metadata>
  <defs
     id="defs4551" />
  <sodipodi:namedview
     pagecolor="#ffffff"
     bordercolor="#666666"
     borderopacity="1"
     objecttolerance="10"
     gridtolerance="10"
     guidetolerance="10"
     inkscape:pageopacity="0"
     inkscape:pageshadow="2"
     inkscape:window-width="1366"
     inkscape:window-height="744"
     id="namedview4549"
     showgrid="false"
     inkscape:zoom="0.476792"
     inkscape:cx="823.85644"
     inkscape:cy="776.37479"
     inkscape:window-x="0"
     inkscape:window-y="24"
     inkscape:window-maximized="1"
     inkscape:current-layer="svg4547" />
  <g
     id="g5240"
     transform="matrix(2.2192526,0,0,2.4481658,-901.47632,-1648.3983)">
    <g
       transform="translate(0.52168981,-0.55656905)"
       id="g5222">
      <path
         style="fill:#e8bd00;fill-opacity:1;fill-rule:evenodd;stroke:#000000;stroke-width:1px;stroke-linecap:butt;stroke-linejoin:miter;stroke-opacity:1"
         d="m 675.16698,748.15833 c -62.67733,-24.45881 -124.87837,-44.78974 -179.32348,2.09735 -47.1937,61.69872 -19.08582,85.74665 -8.38941,118.50031 -8.11318,32.85225 -10.5834,63.19651 6.29206,84.9427 3.0362,104.22391 31.18262,104.41981 52.43376,133.18181 40.55167,17.1081 81.47959,31.5825 124.79236,29.3629 65.52291,2.9325 100.76824,-20.6279 145.76587,-35.655 13.99076,-37.0448 38.86843,-63.2026 32.50894,-120.59766 0.13542,-28.51511 12.02925,-53.09333 -3.14603,-78.65064 10.12701,-39.50214 31.59948,-76.73519 -11.53543,-126.88972 -64.71557,-50.35855 -110.77065,-22.96506 -159.39864,-6.29205 z"
         id="path5202"
         inkscape:connector-curvature="0"
         sodipodi:nodetypes="ccccccccccc" />
      <path
         style="fill:none;fill-rule:evenodd;stroke:#000000;stroke-width:1px;stroke-linecap:butt;stroke-linejoin:miter;stroke-opacity:1"
         d="m 672.76116,777.3928 c -25.52177,-47.7814 -127.97765,-74.97791 -179.32346,-7.34073 -7.82209,19.63667 -20.42875,32.43825 9.43807,105.91616 -3.38286,22.1349 -12.62788,38.4077 -3.14602,73.4073 10.48791,150.73997 115.42099,150.09187 174.08009,155.20387 115.99777,12.5251 158.57841,-81.1603 165.6907,-138.42507 1.33791,-31.7952 7.49447,-70.3366 -4.1947,-83.894 15.10298,-34.21403 25.98615,-67.77884 5.24337,-96.47813 -55.85083,-100.69597 -176.79532,-16.24787 -167.78805,-8.3894 z"
         id="path5185"
         inkscape:connector-curvature="0"
         sodipodi:nodetypes="ccccccccc" />
      <path
         style="fill:none;fill-rule:evenodd;stroke:#000000;stroke-width:1px;stroke-linecap:butt;stroke-linejoin:miter;stroke-opacity:1"
         d="m 671.71249,775.29545 4.1947,329.28395"
         id="path5187"
         inkscape:connector-curvature="0"
         sodipodi:nodetypes="cc" />
      <path
         style="fill:none;fill-rule:evenodd;stroke:#000000;stroke-width:1px;stroke-linecap:butt;stroke-linejoin:miter;stroke-opacity:1"
         d="m 501.8271,878.06563 c 111.98947,22.4098 223.22327,30.4614 332.43006,0"
         id="path5189"
         inkscape:connector-curvature="0"
         sodipodi:nodetypes="cc" />
    </g>
    <path
       inkscape:connector-curvature="0"
       id="path5228"
       d="m 488.68269,974.23783 357.59828,12.5841 -1.04867,56.62847 -357.59828,-25.1682 z"
       style="fill:#602600;fill-opacity:1;fill-rule:evenodd;stroke:#000000;stroke-width:1px;stroke-linecap:butt;stroke-linejoin:miter;stroke-opacity:1" />
    <path
       sodipodi:nodetypes="ccccc"
       inkscape:connector-curvature="0"
       id="path5230"
       d="m 639.69194,981.57855 c 24.60516,-18.06213 47.39805,-14.37687 69.21257,1.04868 17.40924,31.23607 5.14563,46.44507 -1.04867,54.53107 -18.81874,6.6864 -46.98709,18.0194 -67.11522,-6.292 -8.87195,-14.9547 -14.34505,-30.1825 -1.04868,-49.28775 z"
       style="fill:#daa010;fill-opacity:1;fill-rule:evenodd;stroke:#000000;stroke-width:1px;stroke-linecap:butt;stroke-linejoin:miter;stroke-opacity:1" />
    <path
       sodipodi:nodetypes="ccccc"
       inkscape:connector-curvature="0"
       id="path5232"
       d="m 648.60568,983.6759 c -12.69061,13.47489 -12.01421,30.077 0.52434,47.7147 17.52325,10.6355 35.61083,12.2415 54.53112,0.5244 11.14519,-14.138 8.34435,-30.2682 0,-47.19042 -20.74647,-17.28314 -46.45929,-11.22588 -55.05546,-1.04868 z"
       style="fill:#000010;fill-opacity:1;fill-rule:evenodd;stroke:#000000;stroke-width:1px;stroke-linecap:butt;stroke-linejoin:miter;stroke-opacity:1" />
    <path
       inkscape:connector-curvature="0"
       id="path5234"
       d="m 650.70303,1025.0986 0,-36.70366 8.91374,0.52434 13.10844,16.25442 15.73013,-15.73009 9.96242,0 -1.04868,41.94699 -6.29205,-0.5243 0,-31.98461 -14.15712,13.63281 -7.86506,-0.5244 -12.5841,-16.25443 0.52433,30.41163 z"
       style="fill:#deab10;fill-opacity:1;fill-rule:evenodd;stroke:#000000;stroke-width:1px;stroke-linecap:butt;stroke-linejoin:miter;stroke-opacity:1" />
    <path
       sodipodi:nodetypes="ccccccc"
       inkscape:connector-curvature="0"
       id="path5236"
       d="m 636.54591,1028.2446 c -13.41323,7.2619 -29.27375,15.0132 -36.17929,20.9735 -4.24695,0.082 0.6391,6.2521 8.91374,14.6815 -0.0977,7.5887 5.6913,10.7625 16.7788,9.9624 7.78494,6.2264 12.76343,4.0335 17.82748,2.0973 l 21.49785,-28.8385 c -8.91126,-4.2983 -18.49352,-7.8346 -28.83858,-18.8762 z"
       style="fill:#602600;fill-opacity:1;fill-rule:evenodd;stroke:#000000;stroke-width:1px;stroke-linecap:butt;stroke-linejoin:miter;stroke-opacity:1" />
    <path
       sodipodi:nodetypes="ccccccc"
       inkscape:connector-curvature="0"
       id="path5238"
       d="m 681.63895,1045.0234 23.07086,34.6063 c 6.81129,4.853 12.39387,-0.1236 17.82748,-6.2921 5.19254,-2.8187 10.23745,-5.1945 16.77881,-12.0597 2.81663,-3.4956 -3.07859,-6.9912 -8.38941,-10.4868 l -21.49784,-16.7788 c 0.89759,3.6704 -15.57538,7.3407 -27.7899,11.0111 z"
       style="fill:#602600;fill-opacity:1;fill-rule:evenodd;stroke:#000000;stroke-width:1px;stroke-linecap:butt;stroke-linejoin:miter;stroke-opacity:1" />
  </g>
</svg>
