<?xml version="1.0" encoding="UTF-8" standalone="no"?>
<!-- Created with Inkscape (http://www.inkscape.org/) -->

<svg
   xmlns:dc="http://purl.org/dc/elements/1.1/"
   xmlns:cc="http://creativecommons.org/ns#"
   xmlns:rdf="http://www.w3.org/1999/02/22-rdf-syntax-ns#"
   xmlns:svg="http://www.w3.org/2000/svg"
   xmlns="http://www.w3.org/2000/svg"
   xmlns:sodipodi="http://sodipodi.sourceforge.net/DTD/sodipodi-0.dtd"
   xmlns:inkscape="http://www.inkscape.org/namespaces/inkscape"
   id="svg3390"
   version="1.1"
   inkscape:version="0.91 r13725"
   width="1110"
   height="1400"
   viewBox="0 0 1110 1400"
   sodipodi:docname="knot.svg">
  <metadata
     id="metadata3396">
    <rdf:RDF>
      <cc:Work
         rdf:about="">
        <dc:format>image/svg+xml</dc:format>
        <dc:type
           rdf:resource="http://purl.org/dc/dcmitype/StillImage" />
        <dc:title />
      </cc:Work>
    </rdf:RDF>
  </metadata>
  <defs
     id="defs3394" />
  <sodipodi:namedview
     pagecolor="#ffffff"
     bordercolor="#666666"
     borderopacity="1"
     objecttolerance="10"
     gridtolerance="10"
     guidetolerance="10"
     inkscape:pageopacity="0"
     inkscape:pageshadow="2"
     inkscape:window-width="1366"
     inkscape:window-height="744"
     id="namedview3392"
     showgrid="false"
     inkscape:zoom="0.30153053"
     inkscape:cx="654.26806"
     inkscape:cy="729.7997"
     inkscape:window-x="0"
     inkscape:window-y="24"
     inkscape:window-maximized="1"
     inkscape:current-layer="svg3390" />
  <g
     id="g3557"
     transform="matrix(3.314399,0,0,3.3065286,-53.811416,-681.26745)">
    <path
       sodipodi:nodetypes="ccccc"
       inkscape:connector-curvature="0"
       id="path3525"
       d="m 306.03015,335.34338 c -2.34313,8.20771 -5.49595,105.52764 -8.2077,105.52764 -13.22064,6.80306 -27.92164,10.15193 -50.41876,-4.69012 0.75041,-37.89704 -8.58493,-78.12055 15.24288,-110.21775 30.86466,-10.93337 32.71165,3.00555 43.38358,9.38023 z"
       style="fill:#f5793a;fill-opacity:1;fill-rule:evenodd;stroke:#000000;stroke-width:1px;stroke-linecap:butt;stroke-linejoin:miter;stroke-opacity:1" />
    <path
       sodipodi:nodetypes="cccccccc"
       inkscape:connector-curvature="0"
       id="path3527"
       d="m 262.64657,325.96315 c 2.06572,-28.55196 -65.61603,-53.67756 -105.52764,8.2077 -14.54044,22.74276 -29.28989,44.64949 -46.90117,55.10888 -23.211211,15.91784 -83.767637,-0.42868 -82.077056,15.24288 -18.3573573,8.40619 21.369707,31.33349 36.348408,48.0737 49.530668,6.92876 71.755698,-13.4481 93.802348,-34.00335 13.12995,-41.56362 36.30524,-66.385 86.76717,-45.72864 1.30611,-14.11488 6.90314,-29.66006 17.58794,-46.90117 z"
       style="fill:#f5793a;fill-opacity:1;fill-rule:evenodd;stroke:#000000;stroke-width:1px;stroke-linecap:butt;stroke-linejoin:miter;stroke-opacity:1" />
    <path
       sodipodi:nodetypes="ccccccc"
       inkscape:connector-curvature="0"
       id="path3529"
       d="m 243.8861,370.51926 c -37.44624,-10.21012 -70.56502,-9.06064 -83.24958,45.72865 -34.68058,36.4764 -45.0047,31.13631 -97.319937,42.21105 -22.492055,-3.38495 -28.249157,5.78131 -25.795645,21.10553 26.776354,27.72106 55.702118,38.24683 85.594642,41.03852 55.98636,-5.13268 90.65543,-42.24132 121.94305,-84.42211 z"
       style="fill:#f5793a;fill-opacity:1;fill-rule:evenodd;stroke:#000000;stroke-width:1px;stroke-linecap:butt;stroke-linejoin:miter;stroke-opacity:1" />
    <path
       inkscape:connector-curvature="0"
       id="path3531"
       d="m 170.50477,507.53938 c 0.21913,-0.1156 0.42167,-0.18694 0.45009,-0.15852 0.0657,0.0657 -0.53423,0.3794 -0.71382,0.37329 -0.0741,-0.003 0.0446,-0.0992 0.26373,-0.21477 z"
       style="fill:#f5793a;fill-opacity:1" />
    <path
       inkscape:connector-curvature="0"
       id="path3533"
       d="m 122.01835,520.95454 c -0.17101,-0.0213 -1.1737,-0.13344 -2.22822,-0.24912 -1.85156,-0.20312 -6.75197,-0.86585 -7.22875,-0.97761 -0.19963,-0.0468 -0.23318,-0.1225 -0.23318,-0.52605 0,-0.4009 0.0271,-0.46311 0.18137,-0.4161 0.7108,0.21666 8.27449,1.16675 10.07878,1.26602 1.92842,0.1061 8.41521,-0.74669 13.99112,-1.83935 23.79,-4.66191 45.12845,-15.67689 65.56185,-33.84325 3.3203,-2.95192 4.85363,-4.41207 9.112,-8.67709 9.10002,-9.11424 17.3092,-18.63706 27.45808,-31.85195 l 1.85054,-2.40958 0.55907,0 c 0.51802,0 0.54913,0.0136 0.42365,0.18487 -1.56349,2.13437 -6.73048,8.74112 -9.66281,12.35532 -13.90554,17.13903 -26.68495,29.9212 -39.95972,39.96836 -19.20571,14.53605 -40.16317,23.37554 -62.59731,26.40247 -4.35155,0.58713 -6.24255,0.7458 -7.30647,0.61306 z"
       style="fill:#f5793a;fill-opacity:1" />
    <path
       inkscape:connector-curvature="0"
       id="path3535"
       d="m 110.86805,519.45995 c -0.59851,-0.10846 -1.95099,-0.36357 -3.0055,-0.56691 -20.292358,-3.91296 -38.144388,-11.9115 -54.282782,-24.32123 -2.861772,-2.20057 -6.802222,-5.4968 -8.966736,-7.50076 l -0.601832,-0.55719 0.0311,-0.57908 0.0311,-0.57909 1.319411,1.19676 c 18.994481,17.22864 40.518743,27.69967 65.863879,32.04118 l 1.06229,0.18197 0,0.45054 c 0,0.52751 0.0898,0.51303 -1.45093,0.23381 z"
       style="fill:#f5793a;fill-opacity:1" />
    <path
       inkscape:connector-curvature="0"
       id="path3537"
       d="m 42.894171,460.55191 0,-0.56781 0.479325,-0.26513 c 4.227014,-2.33806 10.213356,-2.98735 18.201411,-1.97417 0.684011,0.0868 1.371907,0.17028 1.52866,0.18559 0.223715,0.0219 0.585876,-0.0355 1.684116,-0.26663 3.531415,-0.74329 9.99664,-2.0149 14.379763,-2.82827 1.097266,-0.20362 2.000113,-0.37506 2.006325,-0.38097 0.0062,-0.006 -0.835682,-0.0391 -1.870876,-0.0738 -4.658367,-0.15605 -9.847266,-0.60828 -14.567031,-1.26957 l -0.466371,-0.0653 -0.288367,-0.30883 c -1.375657,-1.47325 -1.954835,-2.07106 -2.994824,-3.09111 -1.366971,-1.34077 -3.156642,-2.99537 -4.944534,-4.57135 -0.67608,-0.59594 -1.229236,-1.09146 -1.229236,-1.10115 0,-0.01 0.32063,-0.0166 0.712511,-0.0153 l 0.712511,0.002 0.932741,0.83401 c 2.682559,2.39861 5.167445,4.78328 6.706958,6.43647 0.66346,0.71246 0.874728,0.90851 1.00481,0.93246 0.09059,0.0167 0.7127,0.1004 1.382461,0.18603 4.698647,0.60079 8.905402,0.94398 13.343383,1.08857 1.952593,0.0636 5.85502,0.0645 6.814194,10e-4 0.69412,-0.0456 2.805646,-0.41229 9.871512,-1.71442 9.010807,-1.66055 14.340957,-2.87496 19.432117,-4.42739 3.06326,-0.93407 6.77974,-2.31136 8.31247,-3.08052 l 0.52078,-0.26134 1.20299,0 1.20299,0 -0.43772,0.21225 c -3.63848,1.76427 -8.22612,3.44409 -13.05564,4.78049 -5.59361,1.54783 -10.71819,2.6118 -24.121728,5.0082 -10.746354,1.92132 -17.612308,3.22979 -24.378435,4.6459 l -1.629909,0.34113 -0.986948,-0.13633 c -1.274243,-0.17602 -2.535348,-0.31643 -3.862901,-0.43011 -1.520528,-0.1302 -5.712078,-0.13034 -6.943658,-2.3e-4 -3.628792,0.38338 -6.290095,1.21486 -8.537258,2.66734 l -0.116592,0.0754 0,-0.56782 z"
       style="fill:#f5793a;fill-opacity:1" />
    <path
       inkscape:connector-curvature="0"
       id="path3539"
       d="m 42.718781,485.34633 c -0.685197,-0.64262 -2.237783,-2.15927 -3.450193,-3.37031 l -2.20438,-2.20191 -0.124032,-0.91604 c -0.236586,-1.74729 -0.342376,-2.97576 -0.388116,-4.50691 -0.193114,-6.46442 1.695041,-11.08759 5.678047,-13.90276 0.268771,-0.18997 0.513407,-0.34661 0.543636,-0.3481 0.03023,-10e-4 0.05496,0.23719 0.05496,0.53038 l 0,0.53307 -0.4509,0.328 c -0.638899,0.46476 -1.65727,1.48782 -2.171896,2.18189 -1.545266,2.0841 -2.371136,4.52237 -2.660966,7.85612 -0.15637,1.79863 -0.01326,4.94485 0.3279,7.2089 l 0.09796,0.65006 1.934292,1.91977 c 1.063861,1.05587 2.431028,2.39572 3.038151,2.97745 l 1.103858,1.05768 -0.04125,0.58556 -0.04125,0.58557 -1.245813,-1.16842 z"
       style="fill:#f5793a;fill-opacity:1" />
    <path
       inkscape:connector-curvature="0"
       id="path3541"
       d="m 126.17176,443.11311 c 8.99404,-4.90509 17.10951,-11.15931 29.64045,-22.84253 l 2.07276,-1.93254 0.66062,-2.01032 c 1.86326,-5.67 4.05636,-11.27147 6.28521,-16.05327 0.43838,-0.94051 1.12225,-2.45622 1.5197,-3.36823 2.59526,-5.95521 5.55213,-10.93996 9.10345,-15.34679 1.38309,-1.71627 5.07603,-5.41071 6.68229,-6.685 5.41682,-4.2973 10.99735,-6.95443 17.80861,-8.47947 l 1.43381,-0.32103 3.54081,0.0143 c 2.6268,0.0106 3.28666,0.0358 2.55624,0.0978 -11.83147,1.0046 -21.22944,5.25804 -28.66071,12.9716 -7.70466,7.99732 -13.29735,19.38405 -17.2064,35.03222 l -0.58949,2.35978 -3.54788,3.5994 c -11.38398,11.54932 -19.68567,18.16035 -28.77538,22.91521 l -1.60918,0.84177 -1.18292,-8.1e-4 -1.18292,-8.1e-4 1.45093,-0.79129 z m 34.36083,-28.37144 c 0.17972,-0.74636 0.48626,-1.9585 0.68118,-2.69364 0.19493,-0.73514 0.33737,-1.35367 0.31652,-1.37451 -0.0474,-0.0474 -0.8406,2.14066 -1.63852,4.51993 l -0.6066,1.8088 0.46032,-0.45178 c 0.44069,-0.43251 0.47426,-0.50963 0.7871,-1.8088 z"
       style="fill:#f5793a;fill-opacity:1" />
    <path
       inkscape:connector-curvature="0"
       id="path3543"
       d="m 244.43587,426.05439 c -0.0315,-0.47026 -0.24657,-11.97796 -0.47803,-25.57266 -0.23145,-13.59471 -0.45012,-25.82131 -0.48593,-27.17023 l -0.0651,-2.45259 -0.6321,-0.16588 c -9.18652,-2.41081 -16.02762,-3.71478 -22.86243,-4.35777 -2.91841,-0.27455 -7.27294,-0.4109 -9.74197,-0.30504 -1.22552,0.0525 -3.62733,0.0722 -5.33735,0.0437 l -3.10914,-0.0518 1.44303,-0.23833 c 3.59032,-0.59296 4.81061,-0.68409 9.23168,-0.68942 4.27249,-0.005 4.9387,0.0318 9.37923,0.52077 5.99128,0.65967 12.68622,1.95947 20.1309,3.90835 l 2.46063,0.64414 7.2e-4,0.95254 c 4.2e-4,0.562 0.0461,0.98054 0.1113,1.02085 0.0608,0.0376 0.12616,0.052 0.14526,0.032 0.0191,-0.02 0.11235,-0.68921 0.20723,-1.48722 0.39289,-3.30443 1.24532,-7.66575 2.18767,-11.19289 2.68231,-10.03949 7.03203,-19.96021 13.63501,-31.09826 1.49898,-2.52851 1.54007,-2.61354 1.54007,-3.18686 l 0,-0.58905 0.46637,0 c 0.4491,0 0.46637,0.0115 0.46637,0.31092 0,0.171 0.0379,0.31091 0.0842,0.31091 0.0463,0 0.49811,-0.13991 1.004,-0.31091 0.71131,-0.24044 1.10334,-0.31092 1.72947,-0.31092 0.77108,0 0.80958,0.0111 0.8079,0.23319 -0.002,0.21066 -0.18237,0.29131 -1.8713,0.83486 l -1.86954,0.60169 -0.4465,0.69379 c -2.56958,3.99271 -6.83544,12.01725 -9.01861,16.96495 -1.38714,3.14368 -1.78404,4.17946 -2.40263,6.27009 -3.72785,12.59895 -4.991,26.74836 -4.28366,47.98436 0.056,1.68153 0.26243,7.13807 0.4587,12.12564 0.19628,4.98758 0.38284,10.14097 0.41459,11.45199 0.0318,1.31102 0.0842,3.00161 0.11651,3.75688 l 0.0588,1.3732 -0.47471,0 -0.47471,0 -5.2e-4,-0.38864 c -3.1e-4,-0.21376 -0.0471,-1.99762 -0.10392,-3.96415 -0.10622,-3.67393 -0.13076,-4.3349 -0.56765,-15.2866 -0.42746,-10.71563 -0.49253,-13.32374 -0.49254,-19.74302 -1e-5,-10.4696 0.49639,-17.87905 1.68649,-25.17347 0.1711,-1.04872 0.29421,-1.92364 0.27358,-1.94427 -0.0421,-0.0421 -0.55815,2.0914 -0.944,3.90284 -0.52643,2.47136 -1.10931,6.31469 -1.26512,8.34171 l -0.0667,0.86743 -0.51693,-0.20376 c -0.28432,-0.11206 -0.53065,-0.19004 -0.54741,-0.17328 -0.0168,0.0168 0.1748,11.38625 0.42569,25.26554 0.25089,13.87929 0.45721,25.96961 0.4585,26.86737 l 0.002,1.6323 -0.40525,0 -0.40525,0 -0.0572,-0.85501 z"
       style="fill:#f5793a;fill-opacity:1" />
    <path
       inkscape:connector-curvature="0"
       id="path3545"
       d="m 69.637269,397.00986 0,-0.46637 1.787755,-0.002 c 2.142926,-0.002 6.996239,-0.16087 9.50878,-0.31131 13.385232,-0.80144 22.190056,-2.9682 28.637616,-7.04736 5.89267,-3.72811 9.41734,-6.50796 14.25497,-11.24268 8.88609,-8.69707 17.90048,-20.63165 30.9987,-41.04063 2.77163,-4.31863 4.56332,-6.9474 6.3926,-9.37923 2.35033,-3.12453 2.15354,-2.92242 2.80706,-2.8829 l 0.54333,0.0328 -0.58485,0.72547 c -1.15195,1.42891 -3.85848,5.10999 -5.02922,6.8401 -0.65571,0.96902 -2.3296,3.53405 -3.71974,5.70009 -12.83261,19.99494 -21.58226,31.55048 -30.68317,40.52285 -4.12275,4.06451 -7.70793,7.03747 -11.645,9.65642 -4.44951,2.95984 -7.20234,4.36458 -11.00494,5.6157 -5.503925,1.81089 -12.357849,2.91375 -21.330089,3.43223 -2.246913,0.12985 -7.780365,0.30898 -9.612418,0.31119 l -1.321384,0.002 0,-0.46637 z"
       style="fill:#f5793a;fill-opacity:1" />
    <path
       inkscape:connector-curvature="0"
       id="path3547"
       d="m 52.828376,442.24961 c -1.047948,-0.8902 -4.246755,-3.57412 -7.108459,-5.96426 -12.768275,-10.66428 -17.526542,-15.25889 -20.480843,-19.77642 -2.181335,-3.33557 -2.779029,-6.20209 -1.757835,-8.43054 0.509001,-1.11075 1.721903,-2.3637 3.081472,-3.18324 l 1.094154,-0.65955 0.0714,-0.88225 c 0.236276,-2.91953 3.038417,-4.87503 8.38649,-5.85258 4.335108,-0.7924 8.118943,-0.95532 22.246493,-0.95786 l 11.248953,-0.002 0,0.42654 0,0.42655 -13.227596,0.071 c -13.43124,0.0721 -15.162862,0.13526 -18.870394,0.68782 -4.691118,0.69915 -7.349158,1.88435 -8.453956,3.76954 -0.304233,0.51913 -0.405148,0.91548 -0.455778,1.79007 l -0.06503,1.12331 -1.11038,0.5716 c -3.148682,1.62087 -4.233526,4.16889 -3.127576,7.34587 1.621029,4.65659 6.715831,10.08082 19.588345,20.8549 6.733936,5.63619 12.091709,10.1654 12.091709,10.22178 0,0.0285 -0.280308,0.0488 -0.622907,0.0451 -0.576529,-0.006 -0.764764,-0.1273 -2.528266,-1.62534 z"
       style="fill:#f5793a;fill-opacity:1" />
    <path
       inkscape:connector-curvature="0"
       id="path3549"
       d="m 240.69901,441.25012 c 0.0556,-0.0713 0.9542,-1.26852 1.99685,-2.66059 l 1.89571,-2.53104 -0.075,-4.53117 -0.075,-4.53117 0.47449,-0.0377 0.4745,-0.0377 1.8e-4,1.55531 c 1e-4,0.85543 0.0289,2.97775 0.064,4.71628 l 0.0638,3.16095 -1.88991,2.51322 -1.8899,2.51322 -0.57049,0 c -0.44123,0 -0.54758,-0.0294 -0.46936,-0.12954 z"
       style="fill:#f5793a;fill-opacity:1" />
    <path
       inkscape:connector-curvature="0"
       id="path3551"
       d="m 274.03451,446.99682 c -3.1737,-0.28764 -6.87708,-1.04588 -9.98682,-2.04473 -4.86268,-1.5619 -10.87462,-4.49919 -15.80883,-7.72381 l -1.24581,-0.81417 0,-4.70337 0,-4.70337 0.38763,-3e-5 0.38762,-3e-5 0.10045,2.23514 c 0.0553,1.22932 0.0787,3.24772 0.0521,4.48533 l -0.0484,2.25021 2.31603,1.42865 c 7.53854,4.65016 14.61868,7.4244 21.57928,8.45546 2.18365,0.32346 7.52022,0.36512 9.59506,0.0749 4.73736,-0.66265 9.23778,-2.07605 14.32635,-4.49934 2.1902,-1.04302 2.09751,-0.93101 2.44717,-2.95727 0.95186,-5.51593 1.85514,-18.16098 3.89241,-54.49024 0.91365,-16.29243 0.97614,-17.37209 1.46753,-25.35594 0.74418,-12.091 1.56032,-21.47923 1.98299,-22.81096 0.0557,-0.17549 -0.24866,-0.46998 -1.10821,-1.07228 -1.36274,-0.9549 -3.46978,-2.76737 -5.78672,-4.97773 l -1.61223,-1.53807 0.60581,-0.007 c 0.5729,-0.006 0.70027,0.082 2.34506,1.62642 2.29737,2.15722 4.28482,3.80631 5.57055,4.62218 1.02403,0.64982 1.04389,0.674 0.92348,1.12503 -0.76639,2.87081 -1.62588,14.63019 -3.43494,46.99569 -2.10004,37.57156 -2.99789,50.21852 -3.9748,55.98828 -0.41745,2.46551 -0.3329,2.36381 -3.04935,3.66758 -5.00785,2.40353 -9.18112,3.74762 -13.86227,4.46464 -1.48228,0.22704 -6.65667,0.40585 -8.06114,0.27856 z"
       style="fill:#f5793a;fill-opacity:1" />
    <path
       inkscape:connector-curvature="0"
       id="path3553"
       d="m 296.09272,327.55144 c -1.04519,-0.9399 -3.5315,-2.58967 -4.83512,-3.20829 -3.0904,-1.46652 -5.3101,-1.90622 -9.60165,-1.90198 -4.16496,0.004 -7.72319,0.55905 -12.65207,1.97322 -1.7891,0.51333 -2.07795,0.56184 -2.18681,0.36731 -0.075,-0.13398 -0.34358,-0.22893 -0.66778,-0.23605 -0.48473,-0.0106 -0.42558,-0.0495 0.55691,-0.36609 4.74072,-1.52743 9.84825,-2.49519 13.99707,-2.65211 4.7538,-0.17981 8.72854,0.69842 12.16499,2.68789 1.3159,0.76181 3.4382,2.31444 4.54355,3.32395 l 0.73283,0.66929 -0.65954,9.4e-4 c -0.57586,8.2e-4 -0.75254,-0.0827 -1.39238,-0.65808 z"
       style="fill:#f5793a;fill-opacity:1" />
    <path
       inkscape:connector-curvature="0"
       id="path3555"
       d="m 164.9702,322.82838 c 2.71126,-3.19968 6.21562,-6.76879 9.36013,-9.53309 7.53185,-6.62112 16.58104,-11.81699 25.66661,-14.73727 6.53984,-2.10204 12.67755,-3.05919 19.66152,-3.06615 9.56443,-0.01 17.83385,1.88581 25.7941,5.91196 6.41389,3.24403 11.60256,7.80426 14.60566,12.83667 1.84657,3.09436 2.67856,5.70432 3.04351,9.54759 0.0729,0.76769 0.0721,0.76947 -0.35074,0.76947 -0.38932,0 -0.42982,-0.0507 -0.49762,-0.6229 -0.0406,-0.3426 -0.14025,-1.15055 -0.22147,-1.79544 -0.85344,-6.77672 -6.38098,-13.85646 -14.59745,-18.69659 -3.32108,-1.95636 -7.79058,-3.83412 -11.80028,-4.95762 -15.6978,-4.39843 -33.02233,-2.04768 -48.22026,6.54296 -3.7419,2.11511 -8.43749,5.42662 -12.01843,8.47587 -2.20256,1.87552 -7.45765,7.1466 -9.30326,9.33157 -1.39402,1.65033 -1.4783,1.72215 -2.02096,1.72215 l -0.56628,0 1.46522,-1.72918 z"
       style="fill:#f5793a;fill-opacity:1" />
  </g>
</svg>
