<?xml version="1.0" encoding="UTF-8" standalone="no"?>
<!-- Created with Inkscape (http://www.inkscape.org/) -->

<svg
   xmlns:dc="http://purl.org/dc/elements/1.1/"
   xmlns:cc="http://creativecommons.org/ns#"
   xmlns:rdf="http://www.w3.org/1999/02/22-rdf-syntax-ns#"
   xmlns:svg="http://www.w3.org/2000/svg"
   xmlns="http://www.w3.org/2000/svg"
   xmlns:sodipodi="http://sodipodi.sourceforge.net/DTD/sodipodi-0.dtd"
   xmlns:inkscape="http://www.inkscape.org/namespaces/inkscape"
   id="svg2"
   version="1.1"
   inkscape:version="0.91 r13725"
   width="600"
   height="470"
   viewBox="0 0 600 470"
   sodipodi:docname="pizza.svg">
  <metadata
     id="metadata8">
    <rdf:RDF>
      <cc:Work
         rdf:about="">
        <dc:format>image/svg+xml</dc:format>
        <dc:type
           rdf:resource="http://purl.org/dc/dcmitype/StillImage" />
        <dc:title></dc:title>
      </cc:Work>
    </rdf:RDF>
  </metadata>
  <defs
     id="defs6" />
  <sodipodi:namedview
     pagecolor="#ffffff"
     bordercolor="#666666"
     borderopacity="1"
     objecttolerance="10"
     gridtolerance="10"
     guidetolerance="10"
     inkscape:pageopacity="0"
     inkscape:pageshadow="2"
     inkscape:window-width="1366"
     inkscape:window-height="744"
     id="namedview4"
     showgrid="false"
     inkscape:zoom="0.91666667"
     inkscape:cx="376.57181"
     inkscape:cy="226.79597"
     inkscape:window-x="0"
     inkscape:window-y="24"
     inkscape:window-maximized="1"
     inkscape:current-layer="svg2" />
  <g
     id="g4216"
     transform="matrix(-1,0,0,-1,600.83653,464.36364)">
    <path
       sodipodi:nodetypes="ccccccccc"
       inkscape:connector-curvature="0"
       id="path4138"
       d="M 86.181818,130.72727 C 135.75592,68.835178 244.80095,63.741288 343.63636,32.545454 c 31.9199,11.949808 43.26461,28.79847 44.72728,48 22.13811,15.074522 -76.30989,-19.563277 -96,14.181819 -32.29954,2.844365 -64.37795,7.347257 -93.81819,31.636367 -26.19886,7.89771 -52.64694,14.30017 -77.45454,30.54545 l -8.72727,57.81818 c -8.8253,4.28144 -17.682175,9.00496 -25.090913,-6.54545 -9.262528,-24.0384 -13.497922,-49.08224 -1.090909,-77.45455 z"
       style="fill:none;fill-rule:evenodd;stroke:#000000;stroke-width:1px;stroke-linecap:butt;stroke-linejoin:miter;stroke-opacity:1" />
    <path
       sodipodi:nodetypes="cc"
       inkscape:connector-curvature="0"
       id="path4140"
       d="m 88.363636,127.45455 c 19.730864,4.29276 23.663094,20.4345 32.727274,32.72727"
       style="fill:none;fill-rule:evenodd;stroke:#000000;stroke-width:1px;stroke-linecap:butt;stroke-linejoin:miter;stroke-opacity:1" />
    <path
       sodipodi:nodetypes="cccccccccccc"
       inkscape:connector-curvature="0"
       id="path4142"
       d="m 114,219.63636 c 22.78413,-9.88748 182.24437,155.80973 217.69736,152.39721 30.76965,5.01309 63.8556,20.44955 98.73782,43.96918 27.7562,17.48695 55.95911,3.23906 85.62421,20.05612 22.63103,-10.19787 -1.69617,-41.26607 -3.85695,-62.48252 -9.3739,-12.08963 -22.54056,-22.66216 -22.37029,-38.56946 -5.77221,-30.93869 -6.47985,-74.03238 -21.5989,-82.53865 -25.6815,-58.84589 -47.23174,-140.8252 -77.52462,-167.391459 -30.72324,-6.003065 -84.30631,-13.673822 -98.73782,9.25667 -10.45034,0.808955 -72.88814,6.356179 -89.86684,30.855569 -34.89695,10.46469 -73.55818,20.51112 -81.76725,33.94113 -3.88197,20.16874 -7.49868,40.33747 -6.33672,60.50621 z"
       style="fill:none;fill-rule:evenodd;stroke:#000000;stroke-width:1px;stroke-linecap:butt;stroke-linejoin:miter;stroke-opacity:1" />
    <ellipse
       cx="244.36363"
       cy="179.27272"
       rx="34.909088"
       ry="21.272726"
       id="path4146"
       style="fill:#f5793a;fill-opacity:1" />
    <path
       sodipodi:open="true"
       d="m 416.42213,226.91511 a 35.454544,21.272726 0 0 1 -48.33007,7.93419 35.454544,21.272726 0 0 1 -13.28878,-28.98732 35.454544,21.272726 0 0 1 48.29426,-8.01232 35.454544,21.272726 0 0 1 13.41894,28.96573"
       sodipodi:end="0.51360677"
       sodipodi:start="0.51899741"
       sodipodi:ry="21.272726"
       sodipodi:rx="35.454544"
       sodipodi:cy="216.36363"
       sodipodi:cx="385.63635"
       sodipodi:type="arc"
       id="path4152"
       style="fill:#f5793a;fill-opacity:1" />
    <path
       sodipodi:open="true"
       d="m 399.51304,330.00604 a 35.454544,21.272726 0 0 1 -48.33007,7.93419 35.454544,21.272726 0 0 1 -13.28877,-28.98733 35.454544,21.272726 0 0 1 48.29426,-8.01232 35.454544,21.272726 0 0 1 13.41894,28.96573"
       sodipodi:end="0.51360677"
       sodipodi:start="0.51899741"
       sodipodi:ry="21.272726"
       sodipodi:rx="35.454544"
       sodipodi:cy="319.45456"
       sodipodi:cx="368.72726"
       sodipodi:type="arc"
       id="path4152-3"
       style="fill:#f5793a;fill-opacity:1" />
    <path
       sodipodi:nodetypes="ccccc"
       inkscape:connector-curvature="0"
       id="path4173"
       d="m 335.94,134.06 c 11.49017,-9.82134 24.6249,-8.13078 37.02669,-11.57084 -1.3919,6.84192 -1.27048,12.67496 3.47125,15.42779 -5.5297,6.4419 -22.40358,7.84194 -36.64099,10.41375 -2.85379,-1.62061 -5.99316,-2.67008 -3.85695,-14.2707 z"
       style="fill:none;fill-rule:evenodd;stroke:#000000;stroke-width:1px;stroke-linecap:butt;stroke-linejoin:miter;stroke-opacity:1" />
    <path
       sodipodi:nodetypes="ccccc"
       inkscape:connector-curvature="0"
       id="path4173-6"
       d="m 277.33995,246.19211 c 11.49017,-9.82134 24.6249,-8.13078 37.02669,-11.57084 -1.3919,6.84192 -1.27048,12.67496 3.47125,15.42779 -5.5297,6.4419 -22.40358,7.84194 -36.64099,10.41375 -2.85379,-1.62061 -5.99316,-2.67008 -3.85695,-14.2707 z"
       style="fill:none;fill-rule:evenodd;stroke:#000000;stroke-width:1px;stroke-linecap:butt;stroke-linejoin:miter;stroke-opacity:1" />
    <path
       sodipodi:nodetypes="ccccc"
       inkscape:connector-curvature="0"
       id="path4173-7"
       d="m 422.74681,343.00146 c 11.49017,-9.82134 24.6249,-8.13078 37.02669,-11.57084 -1.3919,6.84192 -1.27048,12.67496 3.47125,15.42779 -5.5297,6.4419 -22.40358,7.84194 -36.64099,10.41375 -2.85379,-1.62061 -5.99316,-2.67008 -3.85695,-14.2707 z"
       style="fill:none;fill-rule:evenodd;stroke:#000000;stroke-width:1px;stroke-linecap:butt;stroke-linejoin:miter;stroke-opacity:1" />
    <path
       inkscape:connector-curvature="0"
       id="path4196"
       d="m 278.76385,257.32088 c -0.56569,-0.56568 -1.02852,-2.94828 -1.02852,-5.29466 0,-5.86793 6.60772,-10.24748 19.62175,-13.00515 14.26287,-3.0223 15.55323,-2.92197 15.44257,1.20069 -0.0512,1.90919 0.42097,5.28634 1.04936,7.50479 1.33834,4.72478 0.63649,5.11824 -15.00134,8.40972 -11.37642,2.39453 -18.45631,2.81213 -20.08382,1.18461 z"
       style="fill:#5ba532;fill-opacity:1" />
    <path
       inkscape:connector-curvature="0"
       id="path4198"
       d="m 338.75675,146.95691 c -2.4414,-1.6219 -3.26765,-4.56406 -2.62428,-9.34467 0.47831,-3.55411 0.77502,-3.91945 5.29476,-6.51954 3.80974,-2.19164 8.59458,-3.73017 15.17552,-4.87956 3.0834,-0.53853 7.79083,-1.35957 10.46096,-1.82452 l 4.85477,-0.84537 -0.17939,3.72545 c -0.22852,4.74573 0.31833,7.0994 2.14544,9.23397 l 1.39408,1.62866 -0.93859,0.76002 c -3.42163,2.77066 -9.96916,4.6675 -24.28047,7.03409 -4.56084,0.7542 -8.72634,1.45654 -9.25667,1.56075 -0.57461,0.11291 -1.40141,-0.10096 -2.04613,-0.52928 z"
       style="fill:#5ba532;fill-opacity:1" />
    <path
       inkscape:connector-curvature="0"
       id="path4200"
       d="m 424.00546,349.46147 c 0,-5.08276 0.73815,-6.48756 4.61092,-8.77526 3.97483,-2.34799 21.98827,-7.09157 27.23295,-7.17142 0.96782,-0.0147 2.07167,2.22953 2.45298,4.98725 0.38131,2.75771 0.97795,6.03977 1.32587,7.29346 0.82699,2.97995 -11.77351,7.27408 -25.4591,8.67621 l -10.16362,1.04129 0,-6.05153 z"
       style="fill:#4ea532;fill-opacity:1" />
    <path
       inkscape:connector-curvature="0"
       id="path4202"
       d="m 278.77368,256.39313 c -0.29042,-0.74247 -0.53199,-2.64051 -0.5368,-4.21789 -0.0116,-3.81361 3.78822,-7.76139 9.55885,-9.93097 6.13082,-2.305 17.5288,-4.67153 21.20121,-4.40194 l 3.13726,0.2303 0.56318,4.24264 c 1.19021,8.9663 1.22661,8.75083 -1.72027,10.18424 -3.79559,1.84624 -21.24158,5.24355 -26.9269,5.24355 -3.80693,0 -4.85318,-0.26767 -5.27653,-1.34993 z"
       style="fill:#4ea532;fill-opacity:1" />
    <path
       inkscape:connector-curvature="0"
       id="path4204"
       d="m 338.01101,145.37556 c -2.37781,-3.02289 -2.19013,-8.97005 0.36366,-11.52384 3.76943,-3.76942 13.7948,-6.94303 28.99317,-9.178 l 3.55056,-0.52212 0.42858,4.72647 c 0.23572,2.59956 1.00744,5.60992 1.71493,6.68969 1.80927,2.76129 1.12229,3.77081 -3.82593,5.62217 -3.6652,1.37133 -8.42343,2.37555 -27.56087,5.81669 -1.59224,0.28631 -2.45961,-0.0998 -3.6641,-1.63106 z"
       style="fill:#4ea532;fill-opacity:1" />
    <path
       inkscape:connector-curvature="0"
       id="path4206"
       d="m 513.08109,433.62124 c -3.69587,-2.02142 -13.29711,-5.148 -18.89904,-6.15435 -2.54558,-0.4573 -12.05217,-1.35747 -21.12574,-2.00038 -24.56143,-1.74032 -32.45802,-3.8841 -45.27789,-12.29214 -33.68099,-22.09 -65.35081,-36.32157 -90.95977,-40.8749 -13.00236,-2.31185 -14.26516,-2.67706 -21.21333,-6.13503 -17.93113,-8.92398 -41.35528,-26.76546 -101.82325,-77.55573 -46.71996,-39.24259 -60.89296,-50.50018 -76.2287,-60.54829 -8.90263,-5.83307 -15.17395,-8.8775 -19.47563,-9.45447 -3.41113,-0.45753 -3.43186,-0.53097 -3.1058,-11.00319 0.20598,-6.61517 6.12518,-46.01682 7.3596,-48.9898 0.7315,-1.76173 2.75648,-3.31396 8.40655,-6.44399 13.667,-7.57125 28.12007,-12.97728 63.18022,-23.63193 6.96826,-2.11763 9.34688,-3.18707 10.28999,-4.62644 1.64236,-2.50655 12.08906,-9.12961 20.71118,-13.13061 16.07155,-7.4578 34.55441,-11.962871 58.72346,-14.313428 l 9.30682,-0.905134 1.77634,-2.592407 c 3.71211,-5.417477 12.6433,-9.689119 24.3506,-11.646504 9.00676,-1.505871 30.07914,-0.907438 46.66905,1.32535 6.57609,0.885058 14.73353,1.925337 18.12765,2.311731 l 6.17111,0.702534 4.57104,4.823639 c 9.4481,9.970219 20.51054,29.710359 31.62167,56.426589 2.79199,6.71323 11.17098,28.40855 18.61997,48.21183 18.63431,49.53962 21.33261,55.89784 25.8168,60.83415 6.47328,7.12596 9.73481,18.63804 13.83688,48.83946 1.29656,9.54594 2.85679,20.65395 3.46717,24.68445 0.61038,4.03051 1.32178,8.97116 1.58089,10.97922 0.75604,5.8594 5.18573,13.54251 13.72863,23.81172 7.13152,8.57262 8.06002,10.04368 8.95787,14.19228 0.55092,2.54558 3.07062,10.3559 5.59933,17.35626 8.66141,23.97786 8.98284,30.89929 1.71321,36.89152 -1.63429,1.34714 -3.1527,2.43478 -3.37423,2.41699 -0.22154,-0.0178 -1.61773,-0.69683 -3.10265,-1.509 z m -74.19912,-77.52716 c 12.64155,-2.21744 19.49754,-4.31767 23.15624,-7.09356 l 2.56867,-1.94888 -2.18297,-2.28283 c -2.03108,-2.12397 -2.18037,-2.71002 -2.14537,-8.42196 0.0306,-4.99206 -0.16673,-6.06072 -1.05605,-5.71944 -0.60152,0.23082 -6.17245,1.28987 -12.37984,2.35345 -8.66947,1.48543 -12.5381,2.54565 -16.6859,4.57286 -8.16762,3.99187 -8.39036,4.25472 -8.73222,10.30488 -0.26982,4.77514 -0.11444,5.44725 1.77985,7.69848 1.14152,1.35662 2.66087,2.46658 3.37633,2.46658 0.71547,0 6.25103,-0.86831 12.30126,-1.92958 z m -53.60634,-17.66914 c 12.12547,-4.07038 19.03958,-10.97604 19.03958,-19.01628 0,-8.01958 -6.73536,-14.72793 -19.07759,-19.0011 -5.35062,-1.85251 -7.1081,-2.07518 -16.40631,-2.07871 -9.23612,-0.004 -11.11615,0.22954 -16.62492,2.06071 -27.48261,9.13549 -24.59523,32.85601 4.80349,39.46178 7.92549,1.78082 20.61996,1.14021 28.26575,-1.4264 z m -74.77269,-83.0292 c 2.42381,-0.90686 5.3267,-2.43999 6.45085,-3.40695 l 2.04393,-1.75811 -2.13835,-2.54128 c -1.98002,-2.35312 -2.11989,-2.96046 -1.88899,-8.20215 0.13716,-3.11346 0.17219,-5.66004 0.0779,-5.65906 -1.56584,0.0164 -23.24865,4.17077 -26.05572,4.99222 -2.12132,0.62077 -5.80759,2.35372 -8.19171,3.85101 -4.09178,2.56972 -4.35779,2.92653 -4.74539,6.36533 -0.6125,5.43404 0.13659,8.50809 2.5728,10.55802 l 2.15561,1.81383 12.65608,-2.18201 c 6.96086,-1.2001 14.63921,-2.92398 17.06303,-3.83085 z m 88.61242,-19.20406 c 10.39039,-2.65741 17.678,-7.4537 20.6483,-13.58953 6.6585,-13.75462 -10.02898,-27.46995 -33.5761,-27.59598 -9.44509,-0.0505 -15.31207,1.13797 -22.37028,4.53173 -10.67798,5.13423 -15.38177,12.22394 -13.38151,20.1691 1.9638,7.80034 13.00967,15.40763 25.33804,17.45031 5.70373,0.94505 17.83281,0.44327 23.34155,-0.96563 z M 257.1682,199.16796 c 14.02047,-3.58584 22.18196,-10.94275 22.18196,-19.99518 0,-8.44044 -8.62081,-16.34071 -21.65398,-19.84413 -6.1133,-1.64331 -19.44594,-1.84606 -25.40077,-0.38627 -13.68159,3.35395 -23.07146,11.54013 -23.12473,20.16037 -0.0233,3.77385 3.38374,10.27005 6.79334,12.95277 9.88591,7.77836 27.02977,10.73764 41.20418,7.11244 z m 95.09773,-52.08967 c 5.92898,-1.04439 12.42534,-2.39787 14.43636,-3.00774 3.64577,-1.10564 10.6143,-4.79604 10.6143,-5.62114 0,-0.23907 -0.86782,-1.466 -1.92848,-2.72653 -1.06066,-1.26052 -1.96364,-3.21982 -2.00663,-4.35399 -0.12832,-3.3859 0.13767,-7.36527 0.59681,-8.92848 0.34341,-1.16917 0.14704,-1.35775 -0.96818,-0.92979 -0.76943,0.29525 -6.36703,1.3919 -12.43911,2.43699 -12.27721,2.11307 -16.83941,3.59285 -21.97913,7.12907 -3.0743,2.11518 -3.53938,2.81846 -3.97748,6.01472 -0.87221,6.36347 1.76392,11.88578 5.67379,11.88578 0.65879,0 6.04877,-0.8545 11.97775,-1.89889 z"
       style="fill:#ffec46;fill-opacity:1" />
    <path
       sodipodi:nodetypes="cccccc"
       inkscape:connector-curvature="0"
       id="path4208"
       d="m 121.10811,156.04459 c 20.45201,21.50639 38.0404,44.92186 70.19642,58.62558 55.94865,33.78624 65.6393,53.10524 87.93837,76.36753 68.14569,72.96714 81.54004,59.48481 114.1656,76.36753 83.92633,58.87269 75.45014,42.14332 97.19504,50.1403 22.88805,7.64981 22.27445,12.94945 25.53282,18.63629"
       style="fill:none;fill-rule:evenodd;stroke:#000000;stroke-width:1px;stroke-linecap:butt;stroke-linejoin:miter;stroke-opacity:1" />
    <path
       inkscape:connector-curvature="0"
       id="path4210"
       d="m 114.6902,148.4603 c -6.66321,-10.80224 -11.73669,-15.98038 -18.915223,-19.30541 l -5.451204,-2.52495 6.502078,-6.15476 C 119.18569,99.309732 149.09756,84.449849 195.87014,71.271088 c 15.65717,-4.411606 30.52512,-8.124421 63.48251,-15.852806 30.45935,-7.142602 57.33552,-13.977007 72.72517,-18.493448 5.84558,-1.715519 11.1449,-3.119126 11.77628,-3.119126 1.95829,0 15.29847,6.559065 20.48743,10.073207 13.00855,8.809848 20.88935,20.183617 22.6938,32.752282 0.30936,2.154828 1.24834,4.606135 2.13711,5.579185 0.87192,0.954594 1.34828,1.735625 1.05858,1.735625 -0.28969,0 -5.64386,-0.851892 -11.89815,-1.893094 -35.16242,-5.853775 -59.94464,-5.278948 -75.01103,1.739891 -2.33345,1.087064 -6.15183,3.77792 -8.48528,5.979679 l -4.24264,4.003199 -6.55681,0.541471 c -9.2759,0.766016 -27.18448,3.876171 -37.74938,6.555877 -18.1146,4.59461 -29.36074,9.78575 -40.80853,18.83693 -7.02156,5.55158 -7.48164,5.77862 -18.12765,8.9453 -27.65418,8.22579 -43.37333,13.69034 -52.19256,18.14403 -4.86588,2.45726 -11.21529,6.55197 -13.56379,8.74722 l -1.60725,1.50238 -5.29775,-8.58859 z"
       style="fill:#a14700;fill-opacity:1" />
    <path
       inkscape:connector-curvature="0"
       id="path4212"
       d="m 95.062933,216.48026 c -5.175718,-3.51664 -8.884717,-11.37287 -12.860083,-27.23962 -2.400547,-9.58124 -3.284899,-26.59048 -1.854779,-35.67406 1.212072,-7.69863 5.942541,-22.0816 7.821873,-23.78237 1.366075,-1.23628 1.659943,-1.23739 4.852011,-0.0183 4.997117,1.90842 9.986225,5.45071 13.198775,9.37121 4.29664,5.24348 12.73909,19.40734 12.73909,21.37231 0,0.95462 -0.68196,5.31457 -1.51545,9.68877 -0.8335,4.37421 -2.07843,12.87809 -2.76652,18.89751 -0.68809,6.01942 -1.65499,14.06853 -2.14866,17.88691 l -0.89757,6.9425 -3.66373,1.75034 c -5.7454,2.74483 -9.68784,2.99071 -12.904957,0.80483 z"
       style="fill:#ae5a00;fill-opacity:1" />
    <path
       inkscape:connector-curvature="0"
       id="path4214"
       d="m 113.70771,146.35115 c -6.64474,-10.10791 -11.13841,-14.51975 -18.236862,-17.90477 -3.900275,-1.85991 -3.976181,-2.00286 -2.143961,-4.03773 3.754374,-4.16962 18.418853,-15.85191 26.227823,-20.89409 9.76724,-6.30662 31.01613,-16.565263 44.97528,-21.713384 17.31205,-6.384669 42.97021,-13.422225 90.51455,-24.826458 24.9,-5.972643 55.22062,-13.570476 67.37915,-16.884074 l 22.10641,-6.024723 8.96801,4.488634 c 11.61754,5.814761 19.57482,12.023646 24.84926,19.389323 4.01794,5.610981 4.96588,7.747264 8.96913,20.212938 l 1.68396,5.243689 -2.88705,-0.564905 c -16.89867,-3.306539 -28.78052,-4.414496 -47.61433,-4.439934 -26.25839,-0.03547 -33.71076,1.90026 -44.79982,11.636583 -3.02952,2.659956 -5.08371,3.251407 -16.42232,4.728378 -14.43275,1.880015 -34.37702,6.102883 -43.26384,9.160393 -9.86849,3.39526 -17.77651,7.56361 -27.20087,14.3377 -7.77739,5.59026 -11.02175,7.11177 -23.22224,10.89049 -34.99271,10.8379 -52.5716,17.94904 -60.16481,24.33831 l -3.23612,2.72301 -6.48135,-9.85938 z"
       style="fill:#ae5a00;fill-opacity:1" />
  </g>
</svg>
