<?xml version="1.0" encoding="UTF-8" standalone="no"?>
<!-- Created with Inkscape (http://www.inkscape.org/) -->

<svg
   xmlns:dc="http://purl.org/dc/elements/1.1/"
   xmlns:cc="http://creativecommons.org/ns#"
   xmlns:rdf="http://www.w3.org/1999/02/22-rdf-syntax-ns#"
   xmlns:svg="http://www.w3.org/2000/svg"
   xmlns="http://www.w3.org/2000/svg"
   xmlns:sodipodi="http://sodipodi.sourceforge.net/DTD/sodipodi-0.dtd"
   xmlns:inkscape="http://www.inkscape.org/namespaces/inkscape"
   width="210mm"
   height="297mm"
   viewBox="0 0 744.09448819 1052.3622047"
   id="svg2"
   version="1.1"
   inkscape:version="0.91 r13725"
   sodipodi:docname="smoke.svg">
  <defs
     id="defs4" />
  <sodipodi:namedview
     id="base"
     pagecolor="#ffffff"
     bordercolor="#666666"
     borderopacity="1.0"
     inkscape:pageopacity="0.0"
     inkscape:pageshadow="2"
     inkscape:zoom="0.49497475"
     inkscape:cx="15.54436"
     inkscape:cy="482.89073"
     inkscape:document-units="px"
     inkscape:current-layer="layer1"
     showgrid="false"
     inkscape:window-width="1366"
     inkscape:window-height="744"
     inkscape:window-x="0"
     inkscape:window-y="24"
     inkscape:window-maximized="1" />
  <metadata
     id="metadata7">
    <rdf:RDF>
      <cc:Work
         rdf:about="">
        <dc:format>image/svg+xml</dc:format>
        <dc:type
           rdf:resource="http://purl.org/dc/dcmitype/StillImage" />
        <dc:title></dc:title>
      </cc:Work>
    </rdf:RDF>
  </metadata>
  <g
     inkscape:label="Layer 1"
     inkscape:groupmode="layer"
     id="layer1">
    <g
       id="g4177"
       transform="matrix(4.6820512,0,0,4.2702703,-1879.934,-1251.9142)">
      <path
         d="m 485.63506,493.96268 a 38.57143,46.42857 0 0 1 -52.57888,17.31664 38.57143,46.42857 0 0 1 -14.45699,-63.26599 38.57143,46.42857 0 0 1 52.53991,-17.48719 38.57143,46.42857 0 0 1 14.59862,63.21886"
         sodipodi:open="true"
         sodipodi:end="0.51360677"
         sodipodi:start="0.51899809"
         sodipodi:ry="46.42857"
         sodipodi:rx="38.57143"
         sodipodi:cy="470.93362"
         sodipodi:cx="452.14285"
         sodipodi:type="arc"
         id="path4163"
         style="fill:#e1e1e1;fill-opacity:0.68947371" />
      <path
         d="m 546.50812,472.72551 a 48.214287,43.214287 0 0 1 -65.72361,16.1178 48.214287,43.214287 0 0 1 -18.07124,-58.88605 48.214287,43.214287 0 0 1 65.67489,-16.27653 48.214287,43.214287 0 0 1 18.24828,58.84216"
         sodipodi:open="true"
         sodipodi:end="0.51360677"
         sodipodi:start="0.51899809"
         sodipodi:ry="43.214287"
         sodipodi:rx="48.214287"
         sodipodi:cy="451.29077"
         sodipodi:cx="504.64285"
         sodipodi:type="arc"
         id="path4165"
         style="fill:#e1e1e1;fill-opacity:0.68947371" />
      <path
         d="m 498.34229,423.49108 a 34.285713,30.357143 0 0 1 -46.73678,11.32243 34.285713,30.357143 0 0 1 -12.85066,-41.36623 34.285713,30.357143 0 0 1 46.70215,-11.43394 34.285713,30.357143 0 0 1 12.97655,41.33541"
         sodipodi:open="true"
         sodipodi:end="0.51360677"
         sodipodi:start="0.51899809"
         sodipodi:ry="30.357143"
         sodipodi:rx="34.285713"
         sodipodi:cy="408.43362"
         sodipodi:cx="468.57144"
         sodipodi:type="arc"
         id="path4167"
         style="fill:#e1e1e1;fill-opacity:0.68947371" />
      <path
         d="m 534.90311,399.75106 a 27.857143,27.857143 0 0 1 -37.97363,10.38999 27.857143,27.857143 0 0 1 -10.44116,-37.9596 27.857143,27.857143 0 0 1 37.94549,-10.49232 27.857143,27.857143 0 0 1 10.54345,37.93132"
         sodipodi:open="true"
         sodipodi:end="0.51360677"
         sodipodi:start="0.51899809"
         sodipodi:ry="27.857143"
         sodipodi:rx="27.857143"
         sodipodi:cy="385.93362"
         sodipodi:cx="510.71429"
         sodipodi:type="arc"
         id="path4169"
         style="fill:#e1e1e1;fill-opacity:0.68947371" />
      <path
         d="m 524.0389,358.88527 a 23.571428,21.071428 0 0 1 -32.13153,7.8591 23.571428,21.071428 0 0 1 -8.83483,-28.71303 23.571428,21.071428 0 0 1 32.10772,-7.9365 23.571428,21.071428 0 0 1 8.92138,28.69164"
         sodipodi:open="true"
         sodipodi:end="0.51360677"
         sodipodi:start="0.51899809"
         sodipodi:ry="21.071428"
         sodipodi:rx="23.571428"
         sodipodi:cy="348.43362"
         sodipodi:cx="503.57144"
         sodipodi:type="arc"
         id="path4171"
         style="fill:#e1e1e1;fill-opacity:0.68947371" />
      <path
         d="m 494.46215,371.72533 a 20.357143,25.357143 0 0 1 -27.74997,9.45755 20.357143,25.357143 0 0 1 -7.63007,-34.55297 20.357143,25.357143 0 0 1 27.72939,-9.5507 20.357143,25.357143 0 0 1 7.70483,34.52723"
         sodipodi:open="true"
         sodipodi:end="0.51360677"
         sodipodi:start="0.51899809"
         sodipodi:ry="25.357143"
         sodipodi:rx="20.357143"
         sodipodi:cy="359.14792"
         sodipodi:cx="476.78571"
         sodipodi:type="arc"
         id="path4173"
         style="fill:#e1e1e1;fill-opacity:0.68947371" />
      <path
         d="m 507.57212,332.11381 a 29.285715,17.5 0 0 1 -39.921,6.52704 29.285715,17.5 0 0 1 -10.9766,-23.84641 29.285715,17.5 0 0 1 39.89141,-6.59133 29.285715,17.5 0 0 1 11.08414,23.82865"
         sodipodi:open="true"
         sodipodi:end="0.51360677"
         sodipodi:start="0.51899809"
         sodipodi:ry="17.5"
         sodipodi:rx="29.285715"
         sodipodi:cy="323.43362"
         sodipodi:cx="482.14285"
         sodipodi:type="arc"
         id="path4175"
         style="fill:#e1e1e1;fill-opacity:0.68947371" />
    </g>
  </g>
</svg>
